<svg width="12" height="14" viewBox="0 0 12 14" fill="none" xmlns="http://www.w3.org/2000/svg">
<path d="M2.69287 10.1406C2.69287 10.4605 2.954 10.7217 3.27529 10.7217H3.94111V12.3678C3.94111 12.7847 4.27607 13.1252 4.6876 13.1252C5.10049 13.1252 5.43408 12.7861 5.43408 12.3678V10.7203H6.59619V12.3664C6.59619 12.7834 6.93115 13.1238 7.34268 13.1238C7.75557 13.1238 8.08916 12.7847 8.08916 12.3664V10.7203H8.75498C9.07627 10.7203 9.3374 10.4592 9.3374 10.1392V4.73612H2.69287V10.1406V10.1406ZM7.5751 1.93612L8.18896 1.04744C8.22451 0.995491 8.21631 0.925765 8.16846 0.891585C8.12061 0.858773 8.05225 0.875179 8.0167 0.927132L7.37959 1.85135C6.95986 1.68592 6.49228 1.59432 6.00146 1.59432C5.51064 1.59432 5.04307 1.68592 4.62334 1.85135L3.98623 0.928499C3.95068 0.876546 3.88232 0.858773 3.83447 0.892952C3.78662 0.925765 3.77842 0.994124 3.81396 1.04881L4.42783 1.93748C3.45166 2.39139 2.76807 3.25135 2.68057 4.25623H9.3251C9.23486 3.24998 8.5499 2.39002 7.5751 1.93612V1.93612ZM4.59873 3.33748C4.52599 3.33748 4.45489 3.31591 4.39441 3.2755C4.33393 3.23509 4.28679 3.17765 4.25895 3.11045C4.23112 3.04325 4.22383 2.9693 4.23802 2.89796C4.25221 2.82662 4.28724 2.76109 4.33868 2.70966C4.39011 2.65822 4.45564 2.62319 4.52698 2.609C4.59832 2.59481 4.67227 2.6021 4.73947 2.62993C4.80667 2.65777 4.86411 2.70491 4.90452 2.76539C4.94493 2.82587 4.9665 2.89697 4.9665 2.96971C4.96625 3.06717 4.92742 3.16057 4.85851 3.22949C4.78959 3.2984 4.69619 3.33723 4.59873 3.33748V3.33748ZM7.44795 3.33748C7.37521 3.33748 7.3041 3.31591 7.24362 3.2755C7.18314 3.23509 7.13601 3.17765 7.10817 3.11045C7.08034 3.04325 7.07305 2.9693 7.08724 2.89796C7.10143 2.82662 7.13646 2.76109 7.18789 2.70966C7.23933 2.65822 7.30486 2.62319 7.3762 2.609C7.44754 2.59481 7.52149 2.6021 7.58869 2.62993C7.65589 2.65777 7.71333 2.70491 7.75374 2.76539C7.79415 2.82587 7.81572 2.89697 7.81572 2.96971C7.81547 3.06717 7.77664 3.16057 7.70773 3.22949C7.63881 3.2984 7.54541 3.33723 7.44795 3.33748ZM10.5022 4.71424C10.0894 4.71424 9.75576 5.0533 9.75576 5.47166V8.43026C9.75576 8.84725 10.0907 9.18768 10.5022 9.18768C10.9151 9.18768 11.2487 8.84862 11.2487 8.43026V5.4703C11.2501 5.05194 10.9165 4.71424 10.5022 4.71424ZM1.49795 4.71424C1.08506 4.71424 0.751465 5.0533 0.751465 5.47166V8.43026C0.751465 8.84725 1.08643 9.18768 1.49795 9.18768C1.91084 9.18768 2.24443 8.84862 2.24443 8.43026V5.4703C2.24443 5.05194 1.90947 4.71424 1.49795 4.71424Z" fill="black" fill-opacity="0.85"/>
</svg>
