<svg width="11" height="12" viewBox="0 0 11 12" fill="none" xmlns="http://www.w3.org/2000/svg">
<path d="M8.71836 6.32415C8.71289 5.39172 9.13535 4.68899 9.98848 4.17083C9.51133 3.48723 8.78945 3.11126 7.83789 3.03879C6.93691 2.9677 5.95117 3.56379 5.59023 3.56379C5.20879 3.56379 4.33652 3.0634 3.6502 3.0634C2.23379 3.08528 0.728516 4.1927 0.728516 6.44583C0.728516 7.11165 0.850195 7.79934 1.09355 8.50755C1.41895 9.43997 2.59199 11.7245 3.81562 11.6876C4.45547 11.6726 4.90801 11.2337 5.74062 11.2337C6.54863 11.2337 6.96699 11.6876 7.68066 11.6876C8.91523 11.6699 9.97617 9.59309 10.2852 8.65794C8.62949 7.87727 8.71836 6.372 8.71836 6.32415V6.32415ZM7.28145 2.15422C7.97461 1.33118 7.91172 0.581958 7.89121 0.312622C7.27871 0.348169 6.57051 0.729614 6.16719 1.19856C5.72285 1.70168 5.46172 2.32376 5.51777 3.02512C6.17949 3.07571 6.78379 2.73528 7.28145 2.15422V2.15422Z" fill="black" fill-opacity="0.85"/>
</svg>
